<?xml version="1.0" encoding="UTF-8"?>
<svg version="1.1" viewBox="0 0 2048 766" width="1280" height="1280" xmlns="http://www.w3.org/2000/svg">
<path transform="translate(515,203)" d="m0 0h24l17 3 17 6 16 9 16 12 12 11 13 13 11 14 10 14 10 17 10 21 10 30 4 20 2 16v23l-3 18-5 16-6 11-9 11-10 6-8 2h-11l-16-4-29-14-33-17-16-6-10-2h-14l-20 4-5 2-7 18-9 16-10 11-9 6-10 5-8 2h-10l-10-3-10-7-6-9-4-9-3-15-2-7-10-4-7-8-4-7-2-9-1-16 2-20 5-19 7-23 10-24 10-20 9-15 10-15 11-14 8-9 8-7 11-10 18-12 17-8z" fill="#92918F"/>
<path transform="translate(286,467)" d="m0 0h24l17 4 15 6 19 11 17 13 14 12 11 11 9 11 10 13 11 17 12 21 11 23 9 27 3 15v17l-4 11-7 9-11 7-16 5-14 2h-23l-58-6h-19l-13 4-16 8-25 17-17 12-15 9-11 5-13 3h-8l-11-4-8-6-7-7-7-11-7-16-4-15-2-13-1-12v-17l2-20 4-22 7-23 9-21 11-21 15-22 9-11 11-12 11-10 15-10 16-8 15-4z" fill="#F3A632"/>
<path transform="translate(1602,289)" d="m0 0h54l1 1v108l5-4 7-8 12-14 12-13 9-11 11-12 9-11 10-11 7-8 11-12 6-5h52l10 1-2 4-7 7-9 11-11 12-9 11-8 8-7 8-12 14-7 8-9 10-7 8-9 10-12 13 1 4 10 13 22 26 11 14 12 14 11 14 11 13 18 22 14 17 4 6v2l-63 1-4-2-8-11-10-11-11-14-9-10-8-10-13-16-9-11-13-15-10-13-7-8-1 120h-56v-269z" fill="#96C37F"/>
<path transform="translate(1091,289)" d="m0 0h42l33 2 15 3 13 5 13 7 11 9 10 11 8 15 4 13 2 15v13l-2 15-6 18-7 11-9 11-14 10-12 6-13 4-16 3-9 1-45 1-1 97h-55l-1-1v-268zm17 47v78l1 1h41l13-3 11-6 6-5 5-8 3-14v-10l-4-13-6-8-8-6-10-4-13-2z" fill="#FDB968"/>
<path transform="translate(1343,378)" d="m0 0h19l20 3 15 5 13 7 11 9 9 10 8 16 5 19 2 13v12l-1 9-2 1-135 1 3 12 5 10 7 9 9 6 10 4 14 1 15-2 12-5 9-7 6-7 2-3 7 1 23 6 13 5 1 2-4 7-13 16-13 10-16 8-13 4-16 3-11 1h-11l-17-2-15-4-16-7-11-8-7-6-11-14-8-17-4-16-1-8v-22l3-18 5-14 7-12 9-11 10-9 16-9 13-5 16-3zm0 35-13 4-9 7-7 10-6 13 1 4h82l1-2-5-14-7-11-9-7-13-4z" fill="#FDB968"/>
<path transform="translate(1839,382)" d="m0 0h50l2 1 1 121 4 11 8 7 10 4h13l13-5 6-5 6-10 2-7 1-117h41l9 1v175l-1 1h-48l-1-5 2-19-8 7-9 9-12 8-11 4-18 2-16-2-10-4-11-7-7-6-8-11-5-11-3-13-1-9v-119z" fill="#96C37F"/>
<path transform="translate(475,4)" d="m0 0h13l12 4 10 6 10 9 7 9 8 15 5 15 4 18v26l-5 23-6 16-8 12-8 9-9 6-13 4-10 1-15-4-10-6-10-9-9-12-8-16-5-15-3-17v-25l4-20 6-15 8-13 8-9 10-7 10-4z" fill="#92918F"/>
<path transform="translate(302,265)" d="m0 0h15l10 3 11 6 12 11 9 14 7 15 4 13 3 18v24l-5 20-6 15-7 11-8 10-11 7-13 5h-15l-11-4-11-7-9-9-7-10-8-16-5-15-3-14-1-11v-13l2-15 5-17 8-16 11-12 8-7 11-5z" fill="#F3A632"/>
<path transform="translate(648,27)" d="m0 0h21l10 4 9 7 7 8 6 13 4 16v23l-5 23-8 20-10 16-12 14-9 8-14 8-11 4-5 1h-12l-8-2-10-5-9-8-8-14-5-16-2-18 3-21 5-17 6-14 10-16 13-15 11-9 10-6z" fill="#92918F"/>
<path transform="translate(135,309)" d="m0 0 14 1 13 4 12 6 10 8 10 9 10 12 8 13 7 14 5 15 3 17v15l-4 16-6 12-9 10-10 6-11 3h-13l-15-4-15-8-13-11-12-13-10-14-9-19-5-16-2-12v-18l4-16 6-12 6-7 9-6 10-4z" fill="#F3A632"/>
<path transform="translate(1490,320)" d="m0 0h48v62h23l8 1v40l-1 1h-30v134l-1 1h-47v-135h-30l-1-1v-41h30v-58z" fill="#FDB968"/>
<path transform="translate(450,370)" d="m0 0h12l12 5 7 6 6 10 5 15 1 8 1 24-3 3-6 16-9 16-10 11-9 6-10 5-8 2h-10l-10-3-10-7-6-9-4-9-5-25 5-20 5-14 9-15 11-12 10-7 12-5z" fill="#F3A632"/>
<path transform="translate(345,128)" d="m0 0h11l13 4 8 4 9 7 7 6 8 11 7 12 5 14 3 13v14l-4 16-6 10-9 8-8 3-13 1-14-3-13-7-12-11-9-12-8-16-5-15-1-7v-13l4-16 6-10 7-7 9-5z" fill="#92918F"/>
<path transform="translate(64,468)" d="m0 0 13 1 15 4 13 7 12 9 8 8 9 14 6 13 2 9v15l-4 10-6 9-9 6-11 3h-17l-13-3-16-8-11-8-12-12-7-11-6-13-2-9v-15l4-11 6-8 9-6 9-3z" fill="#F3A632"/>
<path transform="translate(741,175)" d="m0 0h20l10 4 10 9 5 10 2 9v9l-3 15-5 12-7 11-11 12-9 8-10 6-16 6-10 2h-8l-10-3-8-5-8-9-4-11-1-5v-11l4-16 8-16 9-12 9-9 14-9 11-5z" fill="#92918F"/>
<path transform="translate(1179,294)" d="m0 0 8 2 17 8 13 10 7 7 7 10 6 13 4 15 1 10v13l-2 15-6 18-7 11-9 11-9 7v-3l6-5 3-6 10-14 3-9 6-9v-29l-1-12-5-10-6-10-8-9-8-7-9-10-5-5-11-8-5-2z" fill="#FEC670"/>
<path transform="translate(1490,320)" d="m0 0h48v40l-1 16h-1l-3-9-3-23-2-9-3-6v-2l-6-2-4-2h-8l-10 4-3 7-1 7v16l-2 25-5 2h-14l-7 1-3 4-1 24-2 1v-32h30v-58z" fill="#FEC56C"/>
<path transform="translate(1091,289)" d="m0 0h35v1l-19 1v1l-15 2h-12l-19 1-6 3-1 44v211l-1 5h-1v-268z" fill="#FEC56E"/>
<path transform="translate(1537,425)" d="m0 0h1v133l-3 1-15-1 3-4 7-3 2-10 1-21v-59l1-19z" fill="#FEC46B"/>
<path transform="translate(1399,501)" d="m0 0 7 1 23 6 13 5 1 2-4 7-12 15-2-2 6-7 2-4h2l-2-6-5-2-5-3v-2h-3v-2l-5-1-13 1-9 3-3 3-2-1 7-7z" fill="#FEC773"/>
<path transform="translate(1091,289)" d="m0 0h35v1l-19 1v1l-15 2h-12l-19 1-9 5v-10z" fill="#F3C877"/>
<path transform="translate(1387,383)" d="m0 0 10 3 13 7 11 9 9 10h-3l-4-4-8-1-8-6-5-7v-3l-15-6z" fill="#FECA7A"/>
<path transform="translate(1238,398)" d="m0 0 1 3-6 16-9 13-7 8-9 6 2-4 5-4 3-6 10-14 3-9z" fill="#FEC978"/>
<path transform="translate(1188,378)" d="m0 0 2 4 2 3v11l-5 6-5 3-8 3-3-1 8-6 5-8 3-14zm-19 30 2 1z" fill="#FEC874"/>
<path transform="translate(1489,347)" d="m0 0h1l1 23v12l-5 2h-14l-7 1-3 4-1 24-2 1v-32h30z" fill="#FEDAA2"/>
<path transform="translate(1261,505)" d="m0 0h2l7 14 5 6 5 5 8 10 11 8 8 5-1 2-11-6-9-7-6-5-11-14-8-17z" fill="#FECA7A"/>
<path transform="translate(1298,391)" d="m0 0 2 1-2 2-3-1zm-5 3 2 1-13 16-12 12-3 1 2-5 10-13 11-10z" fill="#FECA7A"/>
<path transform="translate(1107,530)" d="m0 0h1v29l-22-1 4-3 13-4 3-1z" fill="#FEC56D"/>
<path transform="translate(1568,411)" d="m0 0h1v12l-1 1h-22v-1l9-2 9-1 2-1 1-7z" fill="#FCBD60"/>
<path transform="translate(1460,413)" d="m0 0h1l1 5 8 2 7 2v1l-17 1-1-1v-9z" fill="#FEC56E"/>
</svg>
